<?xml version="1.0" standalone="no"?>
<!DOCTYPE svg PUBLIC "-//W3C//DTD SVG 20010904//EN"
 "http://www.w3.org/TR/2001/REC-SVG-20010904/DTD/svg10.dtd">
<svg version="1.0" xmlns="http://www.w3.org/2000/svg"
 width="512.000000pt" height="512.000000pt" viewBox="0 0 512.000000 512.000000"
 preserveAspectRatio="xMidYMid meet">

<g transform="translate(0.000000,512.000000) scale(0.100000,-0.100000)"
fill="#990000" stroke="none">
<path d="M3105 4383 c-136 -19 -307 -82 -412 -154 -123 -84 -244 -225 -308
-360 -58 -124 -78 -215 -77 -364 0 -160 20 -247 91 -390 88 -177 222 -310 406
-401 116 -57 223 -84 360 -91 260 -13 496 74 682 250 423 402 343 1081 -162
1386 -157 95 -405 148 -580 124z m270 -248 c303 -79 505 -332 505 -634 0 -245
-141 -469 -362 -575 -123 -59 -180 -71 -318 -70 -98 1 -127 5 -195 28 -117 40
-180 80 -271 170 -66 65 -89 97 -122 166 -53 112 -67 175 -66 295 1 79 7 117
28 181 69 215 253 385 475 439 78 19 253 19 326 0z"/>
<path d="M0 4292 l0 -39 93 -32 c119 -42 385 -171 540 -262 437 -258 943 -672
1358 -1110 179 -188 503 -549 498 -553 -2 -2 -62 -27 -134 -56 -473 -192
-1025 -479 -1480 -771 -49 -32 -91 -56 -93 -54 -2 1 13 28 32 58 86 134 186
361 249 567 74 239 108 399 173 825 63 412 68 535 23 535 -15 0 -47 -126 -104
-410 -96 -474 -151 -676 -251 -933 -108 -278 -247 -514 -477 -812 -181 -233
-207 -287 -173 -353 38 -73 119 -69 233 10 198 140 672 407 1048 593 390 192
703 324 1032 435 l173 59 164 -182 c90 -100 218 -250 284 -332 147 -186 211
-234 289 -219 85 16 114 74 168 336 39 189 77 329 132 483 19 55 37 109 40
119 6 18 15 19 192 13 214 -7 349 -31 443 -78 73 -37 98 -74 98 -146 0 -65
-13 -99 -53 -141 -44 -46 -84 -65 -223 -106 -165 -49 -201 -91 -157 -183 22
-47 65 -74 228 -139 292 -117 365 -176 365 -295 0 -55 -23 -100 -77 -149 -118
-110 -331 -148 -534 -96 -157 40 -263 95 -377 198 -29 27 -59 47 -65 45 -66
-22 88 -195 236 -266 145 -69 347 -121 469 -121 76 0 195 28 262 62 77 39 174
137 212 214 39 79 41 185 5 254 -54 103 -155 194 -297 267 -40 21 -74 40 -74
43 0 3 23 18 51 34 76 42 191 156 227 223 42 80 57 162 43 238 -46 251 -290
393 -741 430 -47 4 -88 10 -93 12 -13 7 131 277 217 407 163 245 345 445 596
657 145 123 293 236 326 251 20 10 24 18 24 60 0 26 -4 48 -8 48 -27 0 -327
-199 -520 -344 -284 -213 -612 -598 -851 -998 l-52 -88 -48 0 c-122 0 -469
-42 -672 -82 l-107 -20 -208 208 c-553 553 -1057 958 -1584 1274 -158 95 -468
252 -620 314 -126 51 -329 116 -413 131 l-37 7 0 -40z m3493 -2199 c-19 -43
-52 -129 -73 -191 l-37 -113 -90 103 c-49 57 -111 126 -137 155 l-47 52 38 10
c62 17 305 59 345 60 l37 1 -36 -77z"/>
</g>
</svg>
