<?xml version="1.0" standalone="no"?>
<!DOCTYPE svg PUBLIC "-//W3C//DTD SVG 20010904//EN"
 "http://www.w3.org/TR/2001/REC-SVG-20010904/DTD/svg10.dtd">
<svg version="1.0" xmlns="http://www.w3.org/2000/svg"
 width="512.000000pt" height="512.000000pt" viewBox="0 0 512.000000 512.000000"
 preserveAspectRatio="xMidYMid meet">

<g transform="translate(0.000000,512.000000) scale(0.100000,-0.100000)"
fill="#990000" stroke="none">
<path d="M3028 4230 c-341 -76 -580 -300 -662 -621 -65 -257 11 -547 196 -745
331 -354 896 -364 1237 -23 151 151 227 323 238 539 9 175 -34 335 -128 480
-46 71 -126 160 -144 160 -7 0 -32 -29 -55 -64 -23 -36 -48 -70 -56 -77 -22
-18 -17 -33 26 -85 102 -122 153 -298 130 -448 -37 -248 -190 -426 -435 -508
-100 -33 -270 -33 -370 0 -194 65 -334 199 -404 387 -33 88 -39 246 -13 342
28 103 84 197 166 278 123 121 256 175 435 175 114 0 177 -13 266 -54 32 -14
59 -26 60 -26 1 0 31 38 65 85 71 99 71 98 -23 140 -168 76 -370 101 -529 65z"/>
<path d="M90 4200 c-33 -8 -37 -33 -8 -48 13 -7 64 -23 113 -38 273 -77 661
-291 1020 -560 369 -277 702 -591 1104 -1039 20 -22 71 -79 114 -126 42 -48
77 -90 77 -95 0 -5 -28 -20 -62 -33 -363 -139 -853 -385 -1257 -630 -101 -62
-195 -121 -209 -132 -14 -10 -29 -19 -33 -19 -14 0 -11 22 6 39 25 29 121 222
163 331 97 252 162 514 212 850 12 80 32 219 46 310 29 198 31 298 8 307 -31
12 -36 -5 -115 -390 -95 -467 -160 -703 -250 -904 -10 -24 -19 -46 -19 -49 0
-11 -84 -179 -130 -259 -66 -115 -150 -236 -289 -420 -67 -88 -134 -184 -148
-213 -25 -51 -25 -55 -10 -87 42 -89 109 -86 252 10 225 151 632 379 980 550
188 92 343 165 351 165 2 0 27 11 56 24 116 53 407 165 587 226 l95 32 60 -63
c152 -160 251 -274 396 -457 95 -121 151 -162 220 -162 26 0 56 7 69 16 40 29
79 140 112 319 25 143 99 400 144 501 l25 57 173 -6 c208 -8 339 -32 411 -77
67 -41 66 -44 -46 -97 -134 -65 -195 -114 -236 -191 -55 -104 -53 -191 9 -268
40 -50 65 -66 174 -110 205 -82 291 -138 321 -211 38 -90 -18 -193 -137 -254
-61 -31 -184 -59 -259 -59 -76 0 -201 29 -301 71 -81 33 -112 53 -193 126 -60
53 -89 65 -99 39 -7 -18 41 -86 106 -148 74 -71 236 -144 392 -177 28 -6 71
-15 97 -21 26 -5 64 -10 85 -10 46 1 195 40 243 65 137 70 242 235 226 355
-16 117 -122 238 -281 320 -72 36 -91 52 -112 88 -23 39 -25 47 -14 82 14 47
44 72 117 100 121 45 250 15 343 -79 65 -66 84 -63 89 18 5 88 -56 246 -137
354 -105 140 -287 257 -476 307 -91 24 -259 50 -323 50 -28 0 -45 5 -48 14
-11 28 118 263 242 441 196 283 565 630 849 800 102 61 115 73 115 102 0 18
-5 23 -26 23 -93 0 -594 -335 -794 -531 -218 -214 -422 -476 -613 -788 l-37
-61 -59 0 c-121 0 -421 -37 -644 -80 -33 -6 -61 -10 -63 -8 -2 2 -95 93 -206
204 -247 245 -413 397 -623 573 -602 503 -1222 861 -1730 999 -22 6 -51 14
-64 18 -46 12 -126 20 -151 14z m3384 -2028 c3 -5 -12 -49 -34 -99 -21 -50
-49 -124 -62 -166 -13 -42 -28 -77 -33 -77 -6 0 -29 24 -51 53 -23 29 -74 87
-114 130 -40 42 -70 83 -67 90 2 7 59 22 133 35 71 13 147 27 169 32 55 11 53
11 59 2z"/>
</g>
</svg>
